<svg width="1162" height="37" viewBox="0 0 1162 37" fill="none" xmlns="http://www.w3.org/2000/svg">
<mask id="mask0_143_47" style="mask-type:alpha" maskUnits="userSpaceOnUse" x="0" y="0" width="1162" height="37">
<rect width="1162" height="37" rx="18.5" fill="#C4C4C4"/>
</mask>
<g mask="url(#mask0_143_47)">
<rect width="1162" height="37" rx="18.5" fill="#F3B82F"/>
<path d="M49 0H34L18.5 37H34L49 0Z" fill="#F6C85D"/>
<path d="M79.5 0H64.5L49 37H64.5L79.5 0Z" fill="#F6C85D"/>
<path d="M110 0H95L79.5 37H95L110 0Z" fill="#F6C85D"/>
<path d="M140.5 0H125.5L110 37H125.5L140.5 0Z" fill="#F6C85D"/>
<path d="M171 0H156L140.5 37H156L171 0Z" fill="#F6C85D"/>
<path d="M201.5 0H186.5L171 37H186.5L201.5 0Z" fill="#F6C85D"/>
<path d="M232 0H217L201.5 37H217L232 0Z" fill="#F6C85D"/>
<path d="M262.5 0H247.5L232 37H247.5L262.5 0Z" fill="#F6C85D"/>
<path d="M293 0H278L262.5 37H278L293 0Z" fill="#F6C85D"/>
<path d="M323.5 0H308.5L293 37H308.5L323.5 0Z" fill="#F6C85D"/>
<path d="M354 0H339L323.5 37H339L354 0Z" fill="#F6C85D"/>
<path d="M384.5 0H369.5L354 37H369.5L384.5 0Z" fill="#F6C85D"/>
<path d="M415 0H400L384.5 37H400L415 0Z" fill="#F6C85D"/>
<path d="M445.5 0H430.5L415 37H430.5L445.5 0Z" fill="#F6C85D"/>
<path d="M476 0H461L445.5 37H461L476 0Z" fill="#F6C85D"/>
<path d="M506.5 0H491.5L476 37H491.5L506.5 0Z" fill="#F6C85D"/>
<path d="M537 0H522L506.5 37H522L537 0Z" fill="#F6C85D"/>
<path d="M567.5 0H552.5L537 37H552.5L567.5 0Z" fill="#F6C85D"/>
<path d="M598 0H583L567.5 37H583L598 0Z" fill="#F6C85D"/>
<path d="M628.5 0H613.5L598 37H613.5L628.5 0Z" fill="#F6C85D"/>
<path d="M659 0H644L628.5 37H644L659 0Z" fill="#F6C85D"/>
<path d="M689.5 0H674.5L659 37H674.5L689.5 0Z" fill="#F6C85D"/>
<path d="M720 0H705L689.5 37H705L720 0Z" fill="#F6C85D"/>
<path d="M750.5 0H735.5L720 37H735.5L750.5 0Z" fill="#F6C85D"/>
<path d="M781 0H766L750.5 37H766L781 0Z" fill="#F6C85D"/>
<path d="M811.5 0H796.5L781 37H796.5L811.5 0Z" fill="#F6C85D"/>
<path d="M842 0H827L811.5 37H827L842 0Z" fill="#F6C85D"/>
<path d="M872.5 0H857.5L842 37H857.5L872.5 0Z" fill="#F6C85D"/>
<path d="M903 0H888L872.5 37H888L903 0Z" fill="#F6C85D"/>
<path d="M933.5 0H918.5L903 37H918.5L933.5 0Z" fill="#F6C85D"/>
<path d="M964 0H949L933.5 37H949L964 0Z" fill="#F6C85D"/>
<path d="M994.5 0H979.5L964 37H979.5L994.5 0Z" fill="#F6C85D"/>
<path d="M1025 0H1010L994.5 37H1010L1025 0Z" fill="#F6C85D"/>
<path d="M1055.5 0H1040.5L1025 37H1040.5L1055.5 0Z" fill="#F6C85D"/>
<path d="M1086 0H1071L1055.5 37H1071L1086 0Z" fill="#F6C85D"/>
<path d="M1116.5 0H1101.5L1086 37H1101.5L1116.5 0Z" fill="#F6C85D"/>
<path d="M1147 0H1132L1116.5 37H1132L1147 0Z" fill="#F6C85D"/>
</g>
</svg>
