<?xml version="1.0" encoding="UTF-8"?>
<!DOCTYPE svg PUBLIC "-//W3C//DTD SVG 1.1//EN" "http://www.w3.org/Graphics/SVG/1.1/DTD/svg11.dtd">
<!-- Creator: CorelDRAW 2019 (64-Bit) -->
<svg xmlns="http://www.w3.org/2000/svg" xml:space="preserve" width="450px" height="55px" version="1.1" style="shape-rendering:geometricPrecision; text-rendering:geometricPrecision; image-rendering:optimizeQuality; fill-rule:evenodd; clip-rule:evenodd"
viewBox="0 0 105.6 12.87"
 xmlns:xlink="http://www.w3.org/1999/xlink"
 xmlns:xodm="http://www.corel.com/coreldraw/odm/2003">
 <defs>
  <style type="text/css">
   <![CDATA[
    .fil1 {fill:#534741}
    .fil0 {fill:#C7B299}
    .fil2 {fill:#534741;fill-rule:nonzero}
   ]]>
  </style>
 </defs>
 <g id="Layer_x0020_1">
  <metadata id="CorelCorpID_0Corel-Layer"/>
  <path class="fil0" d="M5.06 10.7c-0.09,0.27 -0.21,0.56 -0.32,0.83l0 0.01 -0.27 0.55 -0.01 0.02c-0.02,0.04 -0.05,0.07 -0.07,0.11 -0.03,0.05 -0.06,0.09 -0.1,0.11 -0.01,0.01 -0.03,0.03 -0.04,0.04l-0.33 0.35 -3.13 -8.23 1.7 0.31 1.69 4.29c0.04,-0.02 0.08,-0.05 0.11,-0.07l0.08 -0.05 -1.37 -3.53 1.43 -0.07 0.09 0.11c0.17,0.24 0.32,0.58 0.44,0.85 0.16,0.38 0.31,0.78 0.46,1.17 0.16,0.41 0.32,0.84 0.49,1.25 0.02,0.05 0.05,0.12 0.09,0.2l1.53 -3.62 1.43 0.24 -1.3 3.39 0.09 0.06c0.04,0.03 0.09,0.06 0.13,0.09l1.91 -4.47 1.71 -0.16 -3.43 8.22 -0.32 -0.35c-0.33,-0.36 -0.53,-1 -0.71,-1.45 -0.04,-0.11 -0.08,-0.21 -0.1,-0.31l-1 2.28 -0.88 -2.17z"/>
  <path class="fil1" d="M5.95 12.1l2.81 -6.4 -1.03 -0.06 -1.69 3.99c-0.42,-0.46 -1.27,-3.31 -1.76,-3.97l-0.93 -0.01 2.6 6.45zm5.08 -7.28l-1.04 0.1 -2.05 4.79c-0.27,-0.29 -0.04,-0.23 -0.36,-0.44 -0.18,0.69 -0.53,0.86 -0.26,1.51 0.17,0.44 0.38,1.06 0.65,1.37l3.06 -7.33zm-9.77 0.06l2.77 7.28c0.18,-0.18 0.01,0.04 0.18,-0.22l0.25 -0.53c0.64,-1.56 0.33,-0.83 0,-2.14 -0.31,0.2 -0.09,0.15 -0.36,0.44l-1.83 -4.65 -1.01 -0.18z"/>
  <path class="fil0" d="M2.8 3.89c0.06,-0.79 0.18,-1.59 0.35,-2.35 0.11,-0.47 0.24,-1.15 0.69,-1.42 0.37,-0.22 0.8,-0.1 1.15,0.09 0.24,0.12 0.44,0.25 0.65,0.41 0.07,0.05 0.2,0.15 0.29,0.17 0.18,0.05 0.64,-0.26 0.78,-0.35 0.37,-0.23 0.87,-0.53 1.33,-0.4 0.45,0.13 0.66,0.61 0.78,1.03 0.24,0.86 0.35,1.77 0.46,2.66 0,0.05 0.01,0.1 0.01,0.15 0.09,-0.08 0.17,-0.16 0.26,-0.25 0.23,-0.24 0.47,-0.48 0.72,-0.7 0.12,-0.09 0.25,-0.18 0.38,-0.25 0.68,-0.34 1.34,-0.14 1.42,0.69 0.02,0.23 0,0.46 -0.12,0.66 -0.1,0.19 -0.27,0.32 -0.45,0.44 -0.2,0.14 -0.42,0.26 -0.63,0.39 -2.7,1.69 -6,2.07 -8.83,0.48 -0.47,-0.26 -0.91,-0.55 -1.36,-0.83 -0.42,-0.26 -0.75,-0.66 -0.67,-1.17 0.04,-0.27 0.22,-0.59 0.46,-0.73 0.1,-0.05 0.21,-0.09 0.33,-0.1 0.42,-0.04 0.81,0.27 1.11,0.53 0.31,0.27 0.59,0.56 0.89,0.85z"/>
  <path class="fil1" d="M0.62 2.88c-0.18,0.1 -0.72,0.78 0.22,1.37 0.45,0.29 0.84,0.54 1.35,0.82 2.73,1.54 5.9,1.17 8.52,-0.46 0.76,-0.48 1.12,-0.58 1.06,-1.21 -0.09,-0.88 -0.9,-0.58 -1.3,-0.24 -0.88,0.74 -1.94,2.35 -4.03,2.56 -3.36,0.34 -4.72,-3.47 -5.82,-2.84zm2.46 1.41c1.47,1.24 3.45,1.74 5.39,0.41 0.5,-0.35 0.59,-0.22 0.51,-0.93 -0.11,-0.89 -0.22,-1.81 -0.45,-2.62 -0.32,-1.11 -0.85,-0.97 -1.66,-0.46 -1.18,0.76 -0.99,0.32 -2.01,-0.22 -1.03,-0.53 -1.22,0.26 -1.41,1.14 -0.19,0.83 -0.34,1.83 -0.37,2.68z"/>
  <path class="fil2" d="M20.91 6.03l-0.87 2.81 0.37 0 0 1.72 -0.68 0c-0.1,0 -0.2,-0.05 -0.28,-0.15 -0.14,-0.16 -0.23,-0.28 -0.24,-0.36 -0.03,0.12 -0.1,0.24 -0.24,0.36 -0.09,0.1 -0.19,0.15 -0.29,0.15l-0.68 0 0 -1.72 0.34 0 -0.42 -1.24c-0.06,-0.21 -0.17,-0.36 -0.33,-0.47 -0.12,-0.08 -0.26,-0.13 -0.42,-0.13 -0.07,0 -0.13,0.01 -0.2,0.03 0.21,-0.12 0.34,-0.29 0.41,-0.51 0.02,-0.1 0.03,-0.2 0.03,-0.31 0,-0.08 -0.01,-0.16 -0.03,-0.26l-0.42 -1.25 -0.69 0 0 -1.72 0.69 0c0.09,0 0.19,0.05 0.29,0.16 0.14,0.15 0.21,0.27 0.24,0.36 0.03,-0.13 0.11,-0.25 0.23,-0.36 0.1,-0.11 0.2,-0.16 0.29,-0.16l0.68 0 0 1.72 -0.69 0 1.22 3.79 1.17 -3.79 -0.68 0 0 -1.72 0.68 0c0.1,0 0.19,0.05 0.29,0.16 0.13,0.14 0.21,0.26 0.24,0.36 0.04,-0.13 0.12,-0.25 0.24,-0.36 0.1,-0.11 0.2,-0.16 0.28,-0.16l0.69 0 0 1.72 -0.74 0 1.31 3.81 1.15 -3.81 -0.68 0 0 -1.72 0.68 0c0.11,0 0.2,0.05 0.3,0.16 0.11,0.12 0.19,0.24 0.23,0.36 0.03,-0.12 0.11,-0.25 0.23,-0.36 0.11,-0.11 0.21,-0.16 0.3,-0.16l0.68 0 0 1.72 -0.74 0 -0.38 1.25c-0.03,0.07 -0.05,0.15 -0.05,0.25 0,0.08 0.02,0.19 0.07,0.34 0.09,0.23 0.23,0.4 0.42,0.5 -0.07,-0.02 -0.14,-0.03 -0.2,-0.03 -0.16,0 -0.3,0.05 -0.43,0.13 -0.18,0.11 -0.29,0.27 -0.34,0.47l-0.41 1.23 0.32 0 0 1.72 -0.67 0c-0.1,0 -0.2,-0.05 -0.29,-0.15 -0.14,-0.14 -0.22,-0.26 -0.24,-0.36 -0.03,0.12 -0.11,0.24 -0.23,0.36 -0.09,0.1 -0.18,0.15 -0.29,0.15l-0.69 0 0 -1.72 0.42 0 -0.95 -2.81zm7.36 1.5l0 1.31 0.69 0 0 1.72 -0.69 0c-0.1,0 -0.19,-0.05 -0.28,-0.16 -0.12,-0.1 -0.2,-0.22 -0.24,-0.36 -0.02,0.08 -0.1,0.2 -0.24,0.36 -0.09,0.11 -0.18,0.16 -0.29,0.16l-0.69 0 0 -1.72 0.69 0 0.01 -1.31c0,-0.23 -0.05,-0.41 -0.14,-0.57 -0.15,-0.22 -0.34,-0.34 -0.56,-0.36 0.22,-0.02 0.41,-0.15 0.56,-0.4 0.09,-0.14 0.13,-0.33 0.13,-0.57l0 -0.93 -0.69 0 0 -1.72 0.69 0c0.09,0 0.19,0.05 0.29,0.16 0.13,0.15 0.21,0.27 0.24,0.36 0.04,-0.13 0.12,-0.25 0.24,-0.36 0.1,-0.11 0.2,-0.16 0.28,-0.16l0.69 0 0 1.72 -0.7 0 0 0.93c0,0.24 0.05,0.43 0.15,0.57 0.17,0.25 0.35,0.38 0.55,0.4 -0.2,0.01 -0.39,0.13 -0.55,0.36 -0.09,0.12 -0.14,0.31 -0.14,0.57zm4.04 -0.07l0 1.38 2.06 0 0 -0.68 0.68 0 0 2.4 -0.32 0c-0.1,0 -0.2,-0.05 -0.3,-0.16 -0.12,-0.12 -0.19,-0.24 -0.23,-0.36 -0.02,0.1 -0.1,0.22 -0.24,0.36 -0.08,0.11 -0.18,0.16 -0.29,0.16l-1.36 0c-0.1,0 -0.19,-0.05 -0.29,-0.16 -0.11,-0.1 -0.19,-0.22 -0.23,-0.36 -0.02,0.11 -0.11,0.23 -0.25,0.36 -0.08,0.11 -0.17,0.16 -0.28,0.16l-1.03 0 0 -1.72 1.03 0 0.01 -1.38c0,-0.22 -0.05,-0.4 -0.15,-0.54 -0.12,-0.19 -0.3,-0.3 -0.54,-0.32 0.24,-0.02 0.42,-0.13 0.54,-0.34 0.09,-0.12 0.14,-0.3 0.14,-0.53l0 -1.03 -1.02 0 0 -1.72 1.02 0c0.1,0 0.19,0.05 0.28,0.16 0.12,0.11 0.21,0.23 0.25,0.36 0.04,-0.13 0.11,-0.25 0.23,-0.36 0.11,-0.11 0.2,-0.16 0.29,-0.16l1.02 0 0 1.72 -1.01 0 0 1.03c0,0.22 0.05,0.4 0.14,0.53 0.14,0.21 0.32,0.32 0.55,0.34 -0.22,0.01 -0.4,0.12 -0.55,0.32 -0.1,0.14 -0.15,0.32 -0.15,0.54zm7.68 3.1l-2.06 0c-0.1,0 -0.19,-0.05 -0.29,-0.16 -0.11,-0.1 -0.19,-0.22 -0.23,-0.36 -0.04,0.12 -0.12,0.24 -0.25,0.36 -0.08,0.11 -0.17,0.16 -0.28,0.16l-1.03 0 0 -1.72 1.03 0 0 -1.39c0,-0.22 -0.05,-0.4 -0.14,-0.53 -0.12,-0.19 -0.3,-0.3 -0.54,-0.32 0.24,-0.02 0.42,-0.13 0.54,-0.34 0.09,-0.12 0.14,-0.3 0.14,-0.53l0 -1.03 -1.02 0 0 -1.73 1.02 0c0.1,0 0.19,0.05 0.28,0.17 0.13,0.12 0.21,0.24 0.25,0.36 0.03,-0.13 0.11,-0.25 0.23,-0.36 0.11,-0.12 0.2,-0.17 0.29,-0.17l2.06 0c0.26,0 0.5,0.11 0.73,0.33 0.21,0.19 0.31,0.44 0.31,0.73l0 1.71c0,0.18 0.06,0.36 0.17,0.52 0.11,0.19 0.28,0.31 0.51,0.36 -0.23,0.03 -0.4,0.13 -0.52,0.31 -0.11,0.15 -0.17,0.33 -0.17,0.54l0 2.07c0,0.28 -0.1,0.52 -0.3,0.73 -0.15,0.14 -0.39,0.24 -0.73,0.29zm0 -1.72l0 -4.13 -2.06 0 0 1.02c0,0.18 0.06,0.35 0.18,0.52 0.13,0.18 0.3,0.3 0.51,0.35 -0.24,0.03 -0.41,0.13 -0.52,0.3 -0.11,0.16 -0.17,0.34 -0.17,0.55l0 1.39 2.06 0zm9.45 -2.81l-0.86 2.81 0.37 0 0 1.72 -0.68 0c-0.11,0 -0.2,-0.05 -0.29,-0.15 -0.14,-0.16 -0.22,-0.28 -0.24,-0.36 -0.02,0.12 -0.1,0.24 -0.23,0.36 -0.09,0.1 -0.19,0.15 -0.29,0.15l-0.68 0 0 -1.72 0.33 0 -0.42 -1.24c-0.05,-0.21 -0.16,-0.36 -0.33,-0.47 -0.11,-0.08 -0.25,-0.13 -0.42,-0.13 -0.06,0 -0.13,0.01 -0.2,0.03 0.21,-0.12 0.35,-0.29 0.41,-0.51 0.03,-0.1 0.04,-0.2 0.04,-0.31 0,-0.08 -0.01,-0.16 -0.04,-0.26l-0.42 -1.25 -0.68 0 0 -1.72 0.68 0c0.1,0 0.2,0.05 0.3,0.16 0.13,0.15 0.21,0.27 0.23,0.36 0.03,-0.13 0.11,-0.25 0.23,-0.36 0.11,-0.11 0.21,-0.16 0.3,-0.16l0.68 0 0 1.72 -0.69 0 1.22 3.79 1.17 -3.79 -0.68 0 0 -1.72 0.68 0c0.09,0 0.19,0.05 0.28,0.16 0.14,0.14 0.22,0.26 0.25,0.36 0.03,-0.13 0.11,-0.25 0.23,-0.36 0.11,-0.11 0.2,-0.16 0.29,-0.16l0.69 0 0 1.72 -0.74 0 1.3 3.81 1.16 -3.81 -0.68 0 0 -1.72 0.68 0c0.1,0 0.2,0.05 0.29,0.16 0.12,0.12 0.2,0.24 0.24,0.36 0.03,-0.12 0.11,-0.25 0.23,-0.36 0.11,-0.11 0.21,-0.16 0.3,-0.16l0.68 0 0 1.72 -0.75 0 -0.38 1.25c-0.03,0.07 -0.04,0.15 -0.04,0.25 0,0.08 0.02,0.19 0.06,0.34 0.09,0.23 0.23,0.4 0.43,0.5 -0.08,-0.02 -0.14,-0.03 -0.2,-0.03 -0.16,0 -0.31,0.05 -0.44,0.13 -0.18,0.11 -0.29,0.27 -0.34,0.47l-0.41 1.23 0.33 0 0 1.72 -0.67 0c-0.1,0 -0.2,-0.05 -0.29,-0.15 -0.14,-0.14 -0.23,-0.26 -0.24,-0.36 -0.04,0.12 -0.12,0.24 -0.24,0.36 -0.08,0.1 -0.18,0.15 -0.28,0.15l-0.69 0 0 -1.72 0.41 0 -0.95 -2.81zm10.3 4.53l-0.32 0c-0.1,0 -0.2,-0.05 -0.3,-0.16 -0.12,-0.12 -0.2,-0.24 -0.23,-0.36 -0.03,0.12 -0.11,0.24 -0.24,0.36 -0.08,0.11 -0.18,0.16 -0.29,0.16l-1.36 0c-0.1,0 -0.19,-0.05 -0.29,-0.16 -0.11,-0.1 -0.19,-0.22 -0.23,-0.36 -0.04,0.12 -0.12,0.24 -0.25,0.36 -0.08,0.11 -0.18,0.16 -0.28,0.16l-1.03 0 0 -1.72 1.03 0 0.01 -1.38c0,-0.22 -0.05,-0.4 -0.15,-0.54 -0.13,-0.19 -0.31,-0.3 -0.54,-0.32 0.25,-0.02 0.43,-0.13 0.54,-0.34 0.09,-0.12 0.14,-0.3 0.14,-0.53l0 -1.03 -1.02 0 0 -1.72 1.02 0c0.09,0 0.19,0.05 0.28,0.16 0.13,0.12 0.21,0.24 0.25,0.36 0.03,-0.13 0.11,-0.25 0.23,-0.36 0.11,-0.11 0.2,-0.16 0.29,-0.16l1.36 0c0.1,0 0.2,0.05 0.29,0.16 0.13,0.13 0.21,0.25 0.24,0.36 0.03,-0.12 0.11,-0.24 0.23,-0.36 0.11,-0.11 0.21,-0.16 0.3,-0.16l0.33 0 0 2.42 -0.69 0 0 -0.7 -2.07 0 0 1.38 1.04 0 0 -0.34 0.69 0 0 0.33c0,0.06 -0.05,0.16 -0.15,0.3 -0.14,0.13 -0.27,0.21 -0.37,0.23 0.07,0.02 0.19,0.1 0.37,0.23 0.1,0.08 0.15,0.18 0.15,0.29l0 0.34 -0.69 0 0 -0.35 -1.03 0 0 1.73 2.06 0 0 -0.68 0.68 0 0 2.4zm1.49 -4.16l0 -0.32c0,-0.22 -0.05,-0.4 -0.14,-0.54 -0.14,-0.19 -0.32,-0.3 -0.56,-0.32 0.24,-0.02 0.42,-0.14 0.56,-0.34 0.09,-0.14 0.14,-0.31 0.14,-0.53l0 -0.32c0,-0.28 0.09,-0.52 0.28,-0.72 0.21,-0.22 0.47,-0.33 0.78,-0.33l1.87 0c0.08,0 0.18,0.05 0.28,0.16 0.11,0.1 0.19,0.22 0.25,0.36 0.02,-0.1 0.09,-0.22 0.23,-0.36 0.1,-0.11 0.19,-0.16 0.29,-0.16l0.33 0 0 2.41 -0.69 0 0 -0.69 -2.57 0 0 1.38 0.33 0c0.21,0 0.39,-0.05 0.53,-0.14 0.19,-0.14 0.31,-0.33 0.34,-0.55 0.02,0.23 0.12,0.41 0.31,0.55 0.15,0.09 0.33,0.14 0.55,0.14l0.54 0c0.22,0 0.42,0.08 0.58,0.23 0.17,0.16 0.26,0.34 0.26,0.53l0 0.61c0,0.18 0.06,0.35 0.17,0.51 0.12,0.19 0.3,0.31 0.52,0.36 -0.23,0.03 -0.4,0.13 -0.52,0.31 -0.1,0.14 -0.16,0.32 -0.17,0.54l0 0.36c0,0.28 -0.1,0.52 -0.31,0.72 -0.16,0.16 -0.4,0.26 -0.72,0.31l-2.42 0c-0.11,0 -0.21,-0.05 -0.3,-0.16 -0.13,-0.15 -0.21,-0.27 -0.23,-0.36 -0.03,0.12 -0.11,0.24 -0.24,0.36 -0.09,0.11 -0.19,0.16 -0.28,0.16l-0.33 0 0 -2.4 0.68 0 0 0.68 3.11 0 0 -1.73 -0.39 0c-0.21,0 -0.38,0.05 -0.54,0.15 -0.2,0.14 -0.3,0.32 -0.31,0.55 -0.04,-0.23 -0.16,-0.42 -0.35,-0.55 -0.16,-0.1 -0.33,-0.15 -0.52,-0.15l-0.62 0c-0.14,0 -0.29,-0.07 -0.45,-0.2 -0.18,-0.15 -0.27,-0.32 -0.27,-0.51zm8.42 -1.7l0 1.08c0,0.21 0.05,0.39 0.14,0.53 0.12,0.19 0.3,0.3 0.55,0.34 -0.23,0.02 -0.42,0.13 -0.55,0.32 -0.09,0.13 -0.13,0.31 -0.13,0.54l0 1.33 0.68 0 0 1.72 -0.68 0c-0.09,0 -0.19,-0.05 -0.3,-0.16 -0.11,-0.11 -0.18,-0.23 -0.22,-0.36 -0.03,0.1 -0.11,0.22 -0.24,0.36 -0.09,0.11 -0.18,0.16 -0.29,0.16l-0.69 0 0 -1.72 0.69 0 0 -1.38c0,-0.22 -0.05,-0.4 -0.14,-0.54 -0.14,-0.19 -0.33,-0.3 -0.55,-0.32 0.23,-0.02 0.42,-0.13 0.55,-0.34 0.09,-0.13 0.14,-0.31 0.14,-0.53l0 -1.03 -1.04 0 0 0.7 -0.7 0 0 -2.76 0.36 0 0 0.34 1.37 0c0.09,0 0.19,0.05 0.29,0.16 0.13,0.15 0.21,0.27 0.24,0.36 0.03,-0.13 0.11,-0.25 0.23,-0.36 0.11,-0.11 0.2,-0.16 0.29,-0.16l1.37 0 0 -0.34 0.35 0 0 2.76 -0.7 0 0 -0.7 -1.02 0z"/>
  <path class="fil2" d="M77.07 7.04l0.62 1.69 0.64 -1.68c0.03,-0.11 0.05,-0.22 0.05,-0.32 0,-0.11 -0.01,-0.18 -0.02,-0.22 -0.06,-0.23 -0.2,-0.41 -0.41,-0.52 0.11,0.02 0.18,0.02 0.19,0.02 0.14,0 0.29,-0.05 0.46,-0.15 0.16,-0.1 0.27,-0.25 0.33,-0.46l0.33 -0.93 -0.71 0 0 -1.78 0.71 0c0.09,0 0.19,0.06 0.3,0.16 0.13,0.16 0.22,0.28 0.25,0.38 0.03,-0.13 0.1,-0.26 0.23,-0.38 0.12,-0.1 0.22,-0.16 0.31,-0.16l0.7 0 0 1.78 -0.77 0 -0.46 1.25c-0.03,0.24 -0.04,0.35 -0.04,0.35 0,0.06 0.01,0.13 0.03,0.22 0.05,0.21 0.17,0.39 0.36,0.53 -0.13,-0.01 -0.19,-0.02 -0.19,-0.02 -0.14,0 -0.28,0.04 -0.42,0.13 -0.12,0.07 -0.23,0.23 -0.36,0.47l-0.49 1.36 0.57 0 0 1.77 -1.06 0c-0.1,0 -0.2,-0.05 -0.3,-0.16 -0.15,-0.17 -0.23,-0.29 -0.25,-0.37 -0.04,0.13 -0.12,0.25 -0.24,0.37 -0.09,0.11 -0.19,0.16 -0.3,0.16l-1.06 0 0 -1.78 0.53 0 -0.5 -1.3c-0.05,-0.14 -0.1,-0.24 -0.14,-0.31 -0.03,-0.05 -0.1,-0.11 -0.2,-0.18 -0.14,-0.09 -0.29,-0.13 -0.45,-0.13 -0.01,0 -0.08,0.01 -0.2,0.02 0.23,-0.11 0.37,-0.29 0.42,-0.52 0.02,-0.07 0.02,-0.13 0.02,-0.19 0,-0.05 -0.02,-0.18 -0.06,-0.39l-0.5 -1.28 -0.71 0 0 -1.78 0.71 0c0.09,0 0.2,0.06 0.3,0.16 0.14,0.16 0.22,0.29 0.24,0.38 0.04,-0.14 0.12,-0.26 0.24,-0.38 0.11,-0.1 0.21,-0.16 0.31,-0.16l0.7 0 0 1.78 -0.71 0 0.36 0.9c0.08,0.17 0.21,0.32 0.39,0.42 0.14,0.11 0.35,0.17 0.61,0.18 -0.2,0.12 -0.33,0.27 -0.39,0.47 -0.04,0.12 -0.05,0.2 -0.05,0.27 0,0.11 0.03,0.23 0.08,0.33zm9.7 3.49l-0.33 0c-0.11,0 -0.21,-0.06 -0.31,-0.17 -0.12,-0.12 -0.2,-0.24 -0.24,-0.37 -0.03,0.12 -0.11,0.24 -0.24,0.37 -0.09,0.11 -0.19,0.17 -0.31,0.17l-1.4 0c-0.1,0 -0.2,-0.06 -0.3,-0.17 -0.12,-0.1 -0.2,-0.23 -0.24,-0.37 -0.04,0.12 -0.13,0.25 -0.26,0.37 -0.08,0.11 -0.18,0.17 -0.29,0.17l-1.07 0 0 -1.78 1.07 0 0.01 -1.43c0,-0.23 -0.05,-0.41 -0.15,-0.55 -0.13,-0.2 -0.32,-0.31 -0.56,-0.34 0.26,-0.02 0.44,-0.13 0.56,-0.34 0.09,-0.13 0.14,-0.32 0.14,-0.56l0 -1.06 -1.05 0 0 -1.78 1.05 0c0.1,0 0.2,0.06 0.29,0.16 0.13,0.13 0.22,0.26 0.26,0.38 0.04,-0.14 0.12,-0.26 0.24,-0.38 0.11,-0.1 0.21,-0.16 0.3,-0.16l1.4 0c0.11,0 0.21,0.06 0.31,0.16 0.13,0.14 0.21,0.26 0.24,0.38 0.04,-0.12 0.12,-0.25 0.24,-0.38 0.11,-0.1 0.21,-0.16 0.31,-0.16l0.34 0 0 2.5 -0.72 0 0 -0.72 -2.14 0 0 1.43 1.08 0 0 -0.36 0.72 0 0 0.35c0,0.06 -0.06,0.16 -0.16,0.3 -0.15,0.14 -0.27,0.22 -0.38,0.24 0.07,0.02 0.2,0.1 0.38,0.25 0.1,0.08 0.16,0.18 0.16,0.29l0 0.36 -0.72 0 0 -0.37 -1.06 0 0 1.79 2.12 0 0 -0.7 0.71 0 0 2.48zm3.35 -3.57l-0.73 0 0 1.79 0.7 0 0 1.78 -0.7 0c-0.1,0 -0.2,-0.06 -0.29,-0.17 -0.13,-0.13 -0.21,-0.25 -0.24,-0.37 -0.03,0.1 -0.11,0.22 -0.25,0.37 -0.09,0.11 -0.2,0.17 -0.3,0.17l-0.72 0 -0.01 -1.78 0.73 0 0 -1.42c0,-0.24 -0.05,-0.43 -0.14,-0.56 -0.14,-0.2 -0.33,-0.31 -0.57,-0.34 0.24,-0.02 0.43,-0.13 0.57,-0.34 0.09,-0.14 0.14,-0.33 0.14,-0.56l0 -1.06 -0.71 0 0 -1.78 0.71 0c0.09,0 0.19,0.06 0.3,0.16 0.14,0.15 0.22,0.28 0.25,0.38 0.03,-0.14 0.11,-0.26 0.24,-0.38 0.11,-0.1 0.21,-0.16 0.29,-0.16l1.78 0c0.32,0 0.57,0.11 0.77,0.32 0.2,0.21 0.31,0.46 0.31,0.75l0 0.36c0,0.23 0.04,0.41 0.12,0.54 0.15,0.21 0.35,0.32 0.58,0.36 -0.24,0.02 -0.43,0.13 -0.58,0.32 -0.09,0.14 -0.13,0.32 -0.15,0.53 0,0.18 -0.01,0.31 -0.05,0.37 -0.02,0.05 -0.08,0.13 -0.18,0.23 -0.16,0.15 -0.34,0.25 -0.51,0.3 0.22,0.1 0.42,0.28 0.57,0.53 0.12,0.25 0.19,0.44 0.19,0.59l0 0.86 0.7 0 0 1.78 -1.78 0 0 -2.51c0,-0.21 -0.11,-0.44 -0.34,-0.67 -0.13,-0.13 -0.25,-0.23 -0.35,-0.3 -0.1,-0.06 -0.21,-0.09 -0.35,-0.09zm1 -2.49l-1.73 0 0 1.43 1.73 0 0 -1.43zm3.45 1.75l0 -0.32c0,-0.23 -0.05,-0.42 -0.15,-0.57 -0.14,-0.19 -0.33,-0.3 -0.57,-0.32 0.24,-0.02 0.43,-0.14 0.57,-0.36 0.1,-0.14 0.14,-0.32 0.14,-0.54l0 -0.33c0,-0.3 0.1,-0.54 0.3,-0.75 0.21,-0.23 0.48,-0.34 0.8,-0.34l1.93 0c0.09,0 0.19,0.06 0.3,0.16 0.11,0.11 0.19,0.24 0.25,0.38 0.02,-0.11 0.1,-0.23 0.24,-0.38 0.1,-0.1 0.2,-0.16 0.3,-0.16l0.34 0 0 2.49 -0.72 0 0 -0.71 -2.65 0 0 1.43 0.34 0c0.22,0 0.4,-0.05 0.54,-0.15 0.21,-0.15 0.33,-0.34 0.36,-0.57 0.02,0.24 0.13,0.43 0.33,0.57 0.14,0.1 0.33,0.15 0.56,0.15l0.56 0c0.23,0 0.43,0.08 0.6,0.24 0.18,0.16 0.26,0.35 0.26,0.55l0 0.62c0,0.19 0.06,0.36 0.18,0.53 0.13,0.2 0.31,0.32 0.54,0.37 -0.24,0.04 -0.42,0.14 -0.54,0.32 -0.11,0.14 -0.17,0.33 -0.18,0.56l0 0.37c0,0.29 -0.1,0.54 -0.31,0.75 -0.17,0.16 -0.42,0.26 -0.75,0.32l-2.51 0c-0.1,0 -0.2,-0.06 -0.3,-0.17 -0.14,-0.16 -0.22,-0.28 -0.24,-0.37 -0.03,0.12 -0.11,0.24 -0.24,0.37 -0.1,0.11 -0.2,0.17 -0.3,0.17l-0.34 0 0 -2.48 0.7 0 0 0.7 3.22 0 0 -1.79 -0.4 0c-0.21,0 -0.4,0.05 -0.56,0.16 -0.2,0.14 -0.31,0.33 -0.32,0.57 -0.04,-0.25 -0.16,-0.44 -0.36,-0.57 -0.17,-0.11 -0.35,-0.16 -0.54,-0.16l-0.64 0c-0.15,0 -0.3,-0.07 -0.46,-0.21 -0.19,-0.15 -0.28,-0.32 -0.28,-0.53zm11.02 4.31l-0.32 0c-0.11,0 -0.21,-0.06 -0.32,-0.17 -0.12,-0.12 -0.2,-0.24 -0.24,-0.37 -0.02,0.12 -0.1,0.24 -0.24,0.37 -0.08,0.11 -0.18,0.17 -0.3,0.17l-1.41 0c-0.1,0 -0.2,-0.06 -0.29,-0.17 -0.12,-0.1 -0.2,-0.23 -0.24,-0.37 -0.05,0.12 -0.13,0.25 -0.26,0.37 -0.09,0.11 -0.18,0.17 -0.29,0.17l-1.07 0 0 -1.78 1.07 0 0.01 -1.43c0,-0.23 -0.05,-0.41 -0.15,-0.55 -0.14,-0.2 -0.33,-0.31 -0.57,-0.34 0.26,-0.02 0.45,-0.13 0.57,-0.34 0.09,-0.13 0.14,-0.32 0.14,-0.56l0 -1.06 -1.05 0 0 -1.78 1.05 0c0.1,0 0.19,0.06 0.29,0.16 0.13,0.13 0.21,0.26 0.26,0.38 0.03,-0.14 0.11,-0.26 0.24,-0.38 0.11,-0.1 0.2,-0.16 0.29,-0.16l1.41 0c0.1,0 0.21,0.06 0.3,0.16 0.13,0.14 0.21,0.26 0.24,0.38 0.04,-0.12 0.12,-0.25 0.24,-0.38 0.12,-0.1 0.22,-0.16 0.32,-0.16l0.33 0 0 2.5 -0.71 0 0 -0.72 -2.14 0 0 1.43 1.08 0 0 -0.36 0.71 0 0 0.35c0,0.06 -0.05,0.16 -0.15,0.3 -0.15,0.14 -0.28,0.22 -0.39,0.24 0.08,0.02 0.21,0.1 0.39,0.25 0.1,0.08 0.15,0.18 0.15,0.29l0 0.36 -0.71 0 0 -0.37 -1.07 0 0 1.79 2.13 0 0 -0.7 0.7 0 0 2.48z"/>
 </g>
</svg>
